<?xml version="1.0" encoding="UTF-8"?>
<svg xmlns="http://www.w3.org/2000/svg" xmlns:xlink="http://www.w3.org/1999/xlink" width="24px" height="24px" viewBox="0 0 24 24" version="1.1">
<g id="surface1">
<path style=" stroke:none;fill-rule:nonzero;fill:rgb(0%,0%,0%);fill-opacity:1;" d="M 3.441406 3.777344 C 3.347656 3.835938 3.28125 3.917969 3.253906 4.023438 C 3.214844 4.132812 3.207031 4.789062 3.214844 6.101562 L 3.226562 8.015625 L 3.347656 8.148438 C 3.460938 8.257812 3.507812 8.277344 3.675781 8.277344 C 3.84375 8.277344 3.898438 8.257812 4.003906 8.148438 L 4.125 8.015625 L 4.132812 6.308594 L 4.144531 4.601562 L 14.738281 4.601562 L 14.738281 16.621094 L 10.894531 16.621094 L 10.753906 16.742188 C 10.632812 16.855469 10.613281 16.902344 10.613281 17.070312 C 10.613281 17.230469 10.640625 17.296875 10.734375 17.390625 L 10.847656 17.511719 L 13.78125 17.53125 C 16.414062 17.539062 16.707031 17.53125 16.820312 17.476562 C 17.070312 17.34375 17.136719 16.988281 16.949219 16.773438 C 16.847656 16.648438 16.835938 16.648438 16.265625 16.632812 L 15.695312 16.613281 L 15.683594 11.773438 L 15.664062 6.9375 L 19.210938 6.9375 L 20.679688 8.304688 L 22.152344 9.675781 L 22.144531 13.144531 L 22.132812 16.613281 L 21.796875 16.632812 C 21.523438 16.648438 21.449219 16.667969 21.355469 16.753906 C 21.214844 16.882812 21.179688 17.054688 21.261719 17.25 C 21.367188 17.492188 21.496094 17.539062 22.171875 17.539062 L 22.761719 17.539062 L 23.042969 17.296875 L 23.054688 13.332031 C 23.0625 10.191406 23.054688 9.347656 23.007812 9.261719 C 22.976562 9.207031 22.367188 8.625 21.65625 7.960938 C 20.945312 7.292969 20.210938 6.609375 20.023438 6.441406 C 19.847656 6.261719 19.640625 6.09375 19.574219 6.054688 C 19.460938 6 19.164062 5.992188 17.550781 5.992188 L 15.65625 5.992188 L 15.65625 5.023438 C 15.65625 4.332031 15.648438 4.023438 15.609375 3.9375 C 15.496094 3.683594 15.84375 3.695312 9.441406 3.695312 C 3.703125 3.695312 3.570312 3.695312 3.441406 3.777344 Z M 3.441406 3.777344 "/>
<path style=" stroke:none;fill-rule:nonzero;fill:rgb(0%,0%,0%);fill-opacity:1;" d="M 16.742188 8.445312 L 16.621094 8.570312 L 16.621094 10.800781 C 16.621094 12.429688 16.632812 13.058594 16.679688 13.144531 C 16.789062 13.378906 16.800781 13.378906 18.917969 13.378906 C 21.046875 13.378906 21.054688 13.378906 21.167969 13.132812 C 21.195312 13.070312 21.214844 12.507812 21.214844 11.484375 L 21.214844 9.945312 L 20.398438 9.132812 L 19.585938 8.316406 L 16.875 8.316406 Z M 19.742188 9.777344 L 20.296875 10.332031 L 20.296875 12.46875 L 17.53125 12.46875 L 17.53125 9.234375 L 19.199219 9.234375 Z M 19.742188 9.777344 "/>
<path style=" stroke:none;fill-rule:nonzero;fill:rgb(0%,0%,0%);fill-opacity:1;" d="M 3.054688 8.8125 C 2.878906 8.886719 2.773438 9.039062 2.773438 9.226562 C 2.773438 9.421875 2.878906 9.5625 3.054688 9.636719 C 3.273438 9.730469 8.71875 9.730469 8.933594 9.636719 C 9.085938 9.570312 9.214844 9.382812 9.214844 9.226562 C 9.214844 9.066406 9.085938 8.878906 8.933594 8.8125 C 8.726562 8.726562 3.253906 8.726562 3.054688 8.8125 Z M 3.054688 8.8125 "/>
<path style=" stroke:none;fill-rule:nonzero;fill:rgb(0%,0%,0%);fill-opacity:1;" d="M 2.015625 11.183594 C 1.789062 11.390625 1.800781 11.765625 2.054688 11.914062 C 2.183594 12 2.289062 12 5.0625 12 C 7.539062 12 7.949219 11.992188 8.054688 11.933594 C 8.210938 11.851562 8.269531 11.746094 8.269531 11.523438 C 8.269531 11.382812 8.242188 11.316406 8.148438 11.210938 L 8.023438 11.089844 L 2.128906 11.089844 Z M 2.015625 11.183594 "/>
<path style=" stroke:none;fill-rule:nonzero;fill:rgb(0%,0%,0%);fill-opacity:1;" d="M 1.199219 13.425781 C 1.03125 13.492188 0.9375 13.648438 0.9375 13.847656 C 0.9375 14.015625 0.957031 14.0625 1.078125 14.164062 L 1.21875 14.289062 L 4.152344 14.289062 C 6.863281 14.289062 7.085938 14.277344 7.171875 14.210938 C 7.40625 14.023438 7.425781 13.742188 7.21875 13.527344 L 7.070312 13.378906 L 4.179688 13.378906 C 2.585938 13.386719 1.246094 13.40625 1.199219 13.425781 Z M 1.199219 13.425781 "/>
<path style=" stroke:none;fill-rule:nonzero;fill:rgb(0%,0%,0%);fill-opacity:1;" d="M 3.441406 14.851562 C 3.234375 14.972656 3.207031 15.113281 3.207031 16.164062 C 3.207031 17.570312 3.179688 17.539062 4.386719 17.539062 C 5.101562 17.539062 5.195312 17.53125 5.316406 17.457031 C 5.558594 17.304688 5.578125 16.929688 5.351562 16.726562 C 5.25 16.640625 5.195312 16.632812 4.695312 16.632812 L 4.164062 16.632812 L 4.164062 15.917969 C 4.164062 15.113281 4.125 14.953125 3.910156 14.839844 C 3.730469 14.746094 3.609375 14.757812 3.441406 14.851562 Z M 3.441406 14.851562 "/>
<path style=" stroke:none;fill-rule:nonzero;fill:rgb(0%,0%,0%);fill-opacity:1;" d="M 7.585938 16.21875 C 6.917969 16.40625 6.367188 16.921875 6.113281 17.605469 C 5.980469 17.953125 5.972656 18.496094 6.101562 18.84375 C 6.46875 19.867188 7.566406 20.503906 8.523438 20.25 C 9.242188 20.0625 9.871094 19.453125 10.070312 18.757812 C 10.359375 17.765625 9.730469 16.632812 8.691406 16.265625 C 8.382812 16.164062 7.875 16.132812 7.585938 16.21875 Z M 8.652344 17.222656 C 9.1875 17.484375 9.382812 18.253906 9.066406 18.84375 C 8.785156 19.351562 8.136719 19.527344 7.539062 19.265625 C 7.273438 19.152344 7.152344 19.03125 7.03125 18.769531 C 6.816406 18.308594 6.929688 17.632812 7.273438 17.34375 C 7.640625 17.042969 8.183594 16.996094 8.652344 17.222656 Z M 8.652344 17.222656 "/>
<path style=" stroke:none;fill-rule:nonzero;fill:rgb(0%,0%,0%);fill-opacity:1;" d="M 18.65625 16.226562 C 18 16.40625 17.417969 16.960938 17.175781 17.625 C 17.042969 17.980469 17.054688 18.523438 17.183594 18.863281 C 17.578125 19.894531 18.636719 20.503906 19.59375 20.25 C 20.128906 20.109375 20.679688 19.6875 20.945312 19.21875 C 21.402344 18.414062 21.253906 17.457031 20.578125 16.789062 C 20.042969 16.257812 19.320312 16.050781 18.65625 16.226562 Z M 19.726562 17.222656 C 20.257812 17.484375 20.457031 18.253906 20.136719 18.84375 C 19.855469 19.351562 19.210938 19.527344 18.609375 19.265625 C 18.347656 19.152344 18.226562 19.03125 18.101562 18.769531 C 17.886719 18.308594 18 17.632812 18.347656 17.34375 C 18.710938 17.042969 19.265625 16.996094 19.726562 17.222656 Z M 19.726562 17.222656 "/>
</g>
</svg>
