<?xml version="1.0" encoding="UTF-8"?>
<svg xmlns="http://www.w3.org/2000/svg" xmlns:xlink="http://www.w3.org/1999/xlink" width="170px" height="61px" viewBox="0 0 170 61" version="1.1">
<g id="surface1">
<path style=" stroke:none;fill-rule:nonzero;fill:rgb(99.607843%,74.117647%,9.411765%);fill-opacity:1;" d="M 163.648438 54.707031 L 163.652344 6.292969 L 6.292969 6.292969 L 6.292969 54.707031 L 163.648438 54.707031 "/>
<path style=" stroke:none;fill-rule:nonzero;fill:rgb(0%,0%,0%);fill-opacity:1;" d="M 13.066406 13.074219 L 156.882812 13.074219 L 156.882812 15.804688 L 13.066406 15.804688 Z M 13.066406 13.074219 "/>
<path style=" stroke:none;fill-rule:nonzero;fill:rgb(0%,0%,0%);fill-opacity:1;" d="M 13.066406 45.164062 L 156.878906 45.164062 L 156.878906 47.890625 L 13.066406 47.890625 Z M 13.066406 45.164062 "/>
<path style=" stroke:none;fill-rule:nonzero;fill:rgb(0%,0%,0%);fill-opacity:1;" d="M 135.066406 17.171875 L 156.886719 17.171875 L 156.886719 24.6875 L 150.972656 24.6875 L 150.972656 43.738281 L 140.957031 43.738281 L 140.957031 24.6875 L 135.066406 24.6875 L 135.066406 17.171875 "/>
<path style=" stroke:none;fill-rule:nonzero;fill:rgb(0%,0%,0%);fill-opacity:1;" d="M 120.0625 17.171875 L 120.0625 43.738281 L 138.242188 43.738281 L 138.242188 35.820312 L 130.058594 35.820312 L 130.058594 17.171875 L 120.0625 17.171875 "/>
<path style=" stroke:none;fill-rule:nonzero;fill:rgb(0%,0%,0%);fill-opacity:1;" d="M 99.585938 17.167969 L 110.570312 17.167969 L 118.988281 43.738281 L 109.207031 43.738281 L 108.203125 39.695312 L 102.070312 39.695312 L 101.160156 43.738281 L 90.945312 43.738281 Z M 103.433594 33.785156 L 106.84375 33.785156 L 105.175781 26.046875 L 103.433594 33.785156 "/>
<path style=" stroke:none;fill-rule:nonzero;fill:rgb(0%,0%,0%);fill-opacity:1;" d="M 94.3125 17.167969 L 84.542969 17.167969 L 81.816406 30.140625 L 78.859375 17.167969 L 70.21875 17.167969 L 67.433594 30.140625 L 64.765625 17.167969 L 55.007812 17.167969 L 62.300781 43.738281 L 71.363281 43.738281 L 74.410156 30.773438 L 77.535156 43.738281 L 86.816406 43.738281 L 94.3125 17.167969 "/>
<path style=" stroke:none;fill-rule:nonzero;fill:rgb(0%,0%,0%);fill-opacity:1;" d="M 40.617188 22.859375 L 55.175781 22.859375 L 55.175781 28.324219 L 48.128906 28.324219 L 48.128906 30.59375 L 54.265625 30.59375 L 54.265625 36.0625 L 48.128906 36.0625 L 48.128906 38.332031 L 55.175781 38.332031 L 55.175781 43.738281 L 40.617188 43.738281 L 40.617188 22.859375 "/>
<path style=" stroke:none;fill-rule:nonzero;fill:rgb(0%,0%,0%);fill-opacity:1;" d="M 13.074219 43.738281 L 13.074219 17.167969 L 25.507812 17.167969 C 32.847656 17.167969 38.683594 21.171875 38.683594 30.507812 C 38.683594 39.59375 33.035156 43.738281 25.457031 43.738281 Z M 23.335938 35.78125 C 26.484375 35.78125 28.566406 34.457031 28.566406 30.421875 C 28.566406 25.988281 26.503906 24.804688 23.355469 24.804688 L 22.554688 24.804688 L 22.554688 35.78125 L 23.335938 35.78125 "/>
<path style=" stroke:none;fill-rule:nonzero;fill:rgb(0%,0%,0%);fill-opacity:1;" d="M 152.324219 41.527344 C 152.324219 40.277344 153.335938 39.355469 154.53125 39.355469 C 155.71875 39.355469 156.730469 40.277344 156.730469 41.527344 C 156.730469 42.785156 155.71875 43.707031 154.53125 43.707031 C 153.335938 43.707031 152.324219 42.785156 152.324219 41.527344 Z M 154.53125 43.347656 C 155.515625 43.347656 156.292969 42.574219 156.292969 41.527344 C 156.292969 40.496094 155.515625 39.71875 154.53125 39.71875 C 153.539062 39.71875 152.761719 40.496094 152.761719 41.527344 C 152.761719 42.574219 153.539062 43.347656 154.53125 43.347656 Z M 154.109375 41.808594 L 154.464844 41.808594 L 154.9375 42.609375 L 155.480469 42.609375 L 154.921875 41.777344 C 155.296875 41.730469 155.554688 41.496094 155.554688 41.039062 C 155.554688 40.65625 155.253906 40.375 154.652344 40.375 L 153.691406 40.375 L 153.691406 42.609375 L 154.109375 42.609375 Z M 154.109375 41.433594 L 154.109375 40.714844 L 154.59375 40.714844 C 154.863281 40.714844 155.167969 40.734375 155.167969 41.0625 C 155.167969 41.4375 154.921875 41.433594 154.589844 41.433594 L 154.109375 41.433594 "/>
</g>
</svg>
