<?xml version="1.0" encoding="UTF-8"?>
<svg xmlns="http://www.w3.org/2000/svg" xmlns:xlink="http://www.w3.org/1999/xlink" width="24px" height="24px" viewBox="0 0 24 24" version="1.1">
<g id="surface1">
<path style=" stroke:none;fill-rule:nonzero;fill:rgb(0%,0%,0%);fill-opacity:1;" d="M 14.269531 6.628906 L 4.902344 6.628906 L 7.71875 3.816406 C 7.941406 3.589844 8.027344 3.265625 7.945312 2.957031 C 7.863281 2.652344 7.625 2.414062 7.320312 2.332031 C 7.011719 2.25 6.6875 2.335938 6.460938 2.558594 L 2.683594 6.335938 C 2.355469 6.667969 2.171875 7.109375 2.167969 7.578125 C 2.164062 8.050781 2.351562 8.503906 2.683594 8.835938 L 6.460938 12.613281 C 6.628906 12.78125 6.855469 12.875 7.089844 12.875 C 7.324219 12.875 7.550781 12.78125 7.71875 12.613281 C 7.882812 12.449219 7.976562 12.222656 7.976562 11.984375 C 7.976562 11.75 7.882812 11.523438 7.71875 11.359375 L 4.753906 8.402344 L 14.269531 8.402344 C 17.460938 8.402344 20.050781 10.992188 20.050781 14.175781 C 20.050781 17.355469 17.460938 19.945312 14.269531 19.945312 L 8.074219 19.945312 C 7.582031 19.945312 7.1875 20.34375 7.1875 20.835938 C 7.1875 21.324219 7.582031 21.722656 8.074219 21.722656 L 14.269531 21.722656 C 18.4375 21.722656 21.828125 18.335938 21.828125 14.175781 C 21.828125 10.011719 18.4375 6.628906 14.269531 6.628906 "/>
</g>
</svg>
